<?xml version="1.0" encoding="UTF-8"?>
<svg id="Layer_1" data-name="Layer 1" xmlns="http://www.w3.org/2000/svg" version="1.1" viewBox="0 0 2494 2500">
  <defs>
    <style>
      .cls-1 {
        fill: #fff;
        stroke-width: 0px;
      }
    </style>
  </defs>
  <path class="cls-1" d="M1247,6.4C558.4,6.4,0,564.6,0,1253.3s357.3,1018.4,852.8,1183.3c62.3,11.5,85.2-27,85.2-60s-1.2-128-1.7-232.1c-346.9,75.4-420.1-147.1-420.1-147.1-56.7-144.1-138.5-182.5-138.5-182.5-113.2-77.4,8.5-75.8,8.5-75.8,125.2,8.8,191.2,128.5,191.2,128.5,111.3,190.7,291.7,135.5,362.8,103.7,11.2-80.6,43.5-135.6,79.2-166.7-277-31.5-568.1-138.5-568.1-616.3s48.7-247.4,128.5-334.7c-12.9-31.3-55.6-158.1,12.1-329.9,0,0,104.8-33.5,343,127.8,99.4-27.6,206.1-41.5,312.2-42,106,.5,212.7,14.3,312.4,42,238.1-161.3,342.6-127.8,342.6-127.8,67.9,171.8,25.1,298.6,12.2,330,79.9,87.3,128.3,198.6,128.3,334.7,0,478.9-291.7,584.5-569.4,615.3,44.8,38.7,84.6,114.6,84.6,230.9,0,166.8-1.4,301.1-1.4,342.2s22.4,72.1,85.6,59.8c495.2-165,852.1-632.3,852.1-1183.2S1935.7,6.4,1247,6.4"/>
</svg>