<?xml version="1.0" encoding="UTF-8"?>
<svg id="Layer_1" xmlns="http://www.w3.org/2000/svg" version="1.1" viewBox="0 0 1024 1024">
  <!-- Generator: Adobe Illustrator 29.0.1, SVG Export Plug-In . SVG Version: 2.1.0 Build 192)  -->
  <defs>
    <style>
      .st0 {
        fill: #fff;
      }
    </style>
  </defs>
  <path class="st0" d="M702.2,505.9l257.4,208.4v-416.8l-257.4,208.4ZM599.9,588.7c-25.3,20.5-56.4,30.8-87.5,30.8s-62.2-10.3-87.5-30.8l-53.8-43.6-305.2,247.2c2.9,22.2,13.8,41.9,29.8,56.2,7.6,6.8,16.3,12.3,25.9,16.3,10.8,4.6,22.7,7.2,35.2,7.2h711.2c15.8,0,30.6-4.1,43.6-11.2,9.1-5,17.4-11.4,24.3-19.1,12.2-13.5,20.4-30.6,22.9-49.6l-305.1-247-53.8,43.6ZM65,297.3v417.2l257.5-208.6L65,297.3Z"/>
  <path class="st0" d="M419.6,505.9l43.7,35.4c28.4,23,69.7,23,98.1,0l43.7-35.4,48.6-39.3,303.4-245.7c-9.6-40.4-45.9-70.5-89.1-70.5H156.7c-43.2,0-79.5,30.1-89.1,70.4l303.5,245.8,48.6,39.3h0Z"/>
</svg>